# xmcd CD database file
#
# Track frame offsets:
#	150
#	31589
#	52447
#	67334
#	82777
#	98607
#	126082
#	143978
#	157274
#	180636
#
# Disc length: 2644 seconds
#
# Revision: 2
# Processed by: cddbd v1.5.2PL0 Copyright (c) Steve Scherf et al.
# Submitted via: CDex 1.70beta2
#
DISCID=8a0a520a
DTITLE=Jazz Quintet 60 - Unknown CD for MusicBrainz and FreeDB
DYEAR=1962
DGENRE=Jazz
TTITLE0=Buddah
TTITLE1=246
TTITLE2=More Peace
TTITLE3=Cuba Libre
TTITLE4=Billies Bounce
TTITLE5=Arround 3/4 Time
TTITLE6=Pokerface
TTITLE7=Ballad Nr. 2
TTITLE8=Blue And Yellow
TTITLE9=Sunny Monday
EXTD=YEAR: 1962
EXTT0=
EXTT1=
EXTT2=
EXTT3=
EXTT4=
EXTT5=
EXTT6=
EXTT7=
EXTT8=
EXTT9=
PLAYORDER=
